<?xml version="1.0" encoding="utf-8"?>
<!-- Generator: Adobe Illustrator 18.0.0, SVG Export Plug-In . SVG Version: 6.00 Build 0)  -->
<!DOCTYPE svg PUBLIC "-//W3C//DTD SVG 1.1//EN" "http://www.w3.org/Graphics/SVG/1.1/DTD/svg11.dtd">
<svg version="1.1" id="STL" xmlns="http://www.w3.org/2000/svg" xmlns:xlink="http://www.w3.org/1999/xlink" x="0px" y="0px"
	 viewBox="0 0 507 168" enable-background="new 0 0 507 168" xml:space="preserve">
<g>
	<path fill="#FFFFFF" d="M15.6,44.7C7,44.7,0,51.7,0,60.3v47.4c0,8.6,7,15.6,15.6,15.6h460.7c8.6,0,15.6-7,15.6-15.6V60.3
		c0-8.6-7-15.6-15.6-15.6H15.6z"/>
	<path fill="#C41E3A" d="M15.6,48.6c-6.5,0-11.7,5.3-11.7,11.7v47.4c0,6.5,5.3,11.7,11.7,11.7h460.7c6.5,0,11.7-5.3,11.7-11.7V60.3
		c0-6.5-5.3-11.7-11.7-11.7H15.6z"/>
	<path fill="#D9D9D9" d="M331.9,99.5c0,3.8-3.1,6.9-6.9,6.9c-3.8,0-6.9-3.1-6.9-6.9c0-3.8,3.1-6.9,6.9-6.9
		C328.8,92.6,331.9,95.6,331.9,99.5"/>
	<path fill="#FFFFFF" d="M48.5,84.3c-1.1-4.3-4-5.7-7.7-5.7c-5.8,0-9.1,3.6-9.1,9.9c0,6.3,3.3,9.9,9.1,9.9c4.1,0,7.3-2.5,7.7-6.6
		h9.6c-1.7,11.5-8.9,14.1-18.1,14.1c-10.7,0-18-5.2-18-17.4c0-12.2,7.5-17.4,18.7-17.4c7.2,0,15.6,2.5,17.4,13.1H48.5z"/>
	<path fill="#FFFFFF" d="M63.8,82.3c1.1-10,9.2-11.1,16.8-11.1c13.3,0,16.2,4.9,16.2,11v16.1c0,2.8,0.4,4.9,1.1,6.5h-9.3
		c-0.3-1.1-0.6-2.3-0.6-3.4c-3.2,3.6-9.1,4.6-13.3,4.6c-7.4,0-12.6-3-12.6-10.5c0-7.8,6.1-9.5,11.7-10l9.9-0.8
		c2.9-0.2,3.8-0.8,3.8-3.4c0-2.6-1.9-3.9-7.3-3.9c-4,0-6,0.4-7.4,4.8H63.8z M87.8,89c-1.7,1-3.6,1.2-5.5,1.4l-5.4,0.5
		c-3.3,0.3-4.9,1.3-4.9,4.2c0,2.9,2.4,4.5,5.9,4.5c4.7,0,9.9-2.6,9.9-8V89z"/>
	<path fill="#FFFFFF" d="M102.9,72.4h9v6.3h0.1c3.4-5,6-7.2,11.3-7.2c1.1,0,2.3,0.1,3.4,0.3v9.9c-1.7-0.5-3.4-1-5.1-1
		c-6.3,0-9.4,3.7-9.4,10v13.9h-9.3V72.4z"/>
	<path fill="#FFFFFF" d="M155.2,100.7h-0.1c-3,4.2-7,5.3-11.2,5.3c-8.8,0-15.8-5.7-15.8-17c0-10.5,6.9-17.4,15.8-17.4
		c5.3,0,9.1,1.9,10.9,4.8h0.1V60.9h9.3v43.8h-9V100.7z M146.4,98.1c4.7,0,8.7-3.2,8.7-9.3c0-6.2-4.1-9.4-8.7-9.4
		c-4.7,0-8.8,3.2-8.8,9.4C137.6,94.9,141.7,98.1,146.4,98.1"/>
	<path fill="#FFFFFF" d="M170.5,60.9h9.3v7.5h-9.3V60.9z M170.5,72.4h9.3v32.3h-9.3V72.4z"/>
	<path fill="#FFFFFF" d="M209.7,86.4c0-4.5-2.1-6.6-6.2-6.6c-4.3,0-8,2.5-8,9.3v15.6h-9.3V72.4h9v4.7h0.1c1.7-2.7,6.1-5.6,11.6-5.6
		c4.8,0,12.2,2.1,12.2,11.6v21.5h-9.3V86.4z"/>
	<path fill="#FFFFFF" d="M225.5,82.3c1.1-10,9.2-11.1,16.8-11.1c13.3,0,16.2,4.9,16.2,11v16.1c0,2.8,0.4,4.9,1.1,6.5h-9.3
		c-0.3-1.1-0.6-2.3-0.6-3.4c-3.2,3.6-9.1,4.6-13.3,4.6c-7.4,0-12.6-3-12.6-10.5c0-7.8,6.1-9.5,11.7-10l9.9-0.8
		c2.9-0.2,3.8-0.8,3.8-3.4c0-2.6-1.9-3.9-7.3-3.9c-4,0-6,0.4-7.4,4.8H225.5z M249.5,89c-1.7,1-3.7,1.2-5.5,1.4l-5.4,0.5
		c-3.3,0.3-4.9,1.3-4.9,4.2c0,2.9,2.4,4.5,5.9,4.5c4.7,0,10-2.6,10-8V89z"/>
	<rect x="264.6" y="60.9" fill="#FFFFFF" width="9.3" height="43.8"/>
	<path fill="#FFFFFF" d="M288.9,94.7c0.4,2.8,2.1,4.6,6.9,4.6c4.2,0,6.7-1.1,6.7-3.5c0-1.8-0.8-2.5-5.3-3.3l-8.5-1.3
		c-5.9-0.9-9.3-3-9.3-9.2c0-8.7,7.8-10.8,15.5-10.8c13.1,0,16.1,4.9,16.8,10.9h-10.3c-0.5-3.3-3.6-4.3-6.3-4.3
		c-2.4,0-6.1,0.2-6.1,3.4c0,1.5,0.7,2.5,4.7,3l6.5,0.8c9.5,1.1,12.5,4.3,12.5,9.9c0,9.6-9.4,10.9-17.5,10.9
		c-10.7,0-16.2-3.6-16.7-11.2H288.9z"/>
	<path fill="#D9D9D9" d="M362.3,84.3c-1.1-4.3-4-5.7-7.7-5.7c-5.8,0-9.1,3.6-9.1,9.9c0,6.3,3.3,9.9,9.1,9.9c4.1,0,7.3-2.5,7.7-6.6
		h9.6c-1.7,11.5-8.9,14.1-18.2,14.1c-10.7,0-17.9-5.2-17.9-17.4c0-12.2,7.5-17.4,18.7-17.4c7.2,0,15.6,2.5,17.4,13.1H362.3z"/>
	<path fill="#D9D9D9" d="M461.7,85.3c0-4.4-3-5.6-5.7-5.6c-3.9,0-7,2.4-7,7.5v17.5h-9.3V85.3c0-4.4-3-5.6-5.6-5.6
		c-4,0-7.1,2.4-7.1,7.5v17.5h-9.3V72.4h9v4.7h0.1c1.7-2.7,6.2-5.6,11.6-5.6c5.4,0,8.4,2.4,9.8,6.1c2.6-3.9,6.5-6.1,11.7-6.1
		c5.7,0,11.3,2.8,11.3,11.3v21.9h-9.3V85.3z"/>
	<polygon fill="#FFFFFF" points="499.5,118.6 497.7,118.6 497.7,123.3 496.1,123.3 496.1,118.6 494.3,118.6 494.3,117.2 
		499.5,117.2 	"/>
	<polygon fill="#FFFFFF" points="500.2,117.2 502.6,117.2 503.6,121.2 503.6,121.2 504.7,117.2 507,117.2 507,123.3 505.5,123.3 
		505.5,118.7 505.5,118.7 504.2,123.3 503,123.3 501.7,118.7 501.7,118.7 501.7,123.3 500.2,123.3 	"/>
	<path fill="#FFFFFF" d="M396.5,70.1c-10-1-18.9,6.2-20,16.2c-1.1,10,6.2,18.9,16.2,20c10,1,19-6.2,20-16.2
		C413.7,80.1,406.4,71.1,396.5,70.1"/>
	<path fill-rule="evenodd" clip-rule="evenodd" fill="#C41E3A" d="M381,94.3l0.9-1l-1.8-0.2c-0.3,0.3-0.5,0.7-0.7,1L381,94.3z"/>
	<path fill-rule="evenodd" clip-rule="evenodd" fill="#C41E3A" d="M381,92l1.8,0.4l1.1-0.9l-1.9-0.5C381.6,91.4,381.3,91.7,381,92"
		/>
	<path fill-rule="evenodd" clip-rule="evenodd" fill="#C41E3A" d="M385.9,90l-1.9-0.7c-0.3,0.3-0.7,0.5-1,0.8l1.8,0.7L385.9,90z"/>
	<path fill-rule="evenodd" clip-rule="evenodd" fill="#C41E3A" d="M390.3,86.9l-2.2-0.8c-0.3,0.3-0.7,0.5-1.1,0.8l2.2,0.8
		L390.3,86.9z"/>
	<path fill-rule="evenodd" clip-rule="evenodd" fill="#C41E3A" d="M392.2,85.2l-2.1-0.8c-0.2,0.2-0.5,0.5-0.7,0.7
		c-0.1,0.1-0.2,0.1-0.3,0.2l2.2,0.8L392.2,85.2z"/>
	<path fill-rule="evenodd" clip-rule="evenodd" fill="#C41E3A" d="M393.2,84.1l0.7-1.2l-2.1-0.5c-0.3,0.4-0.5,0.8-0.9,1.2
		L393.2,84.1z"/>
	<path fill-rule="evenodd" clip-rule="evenodd" fill="#C41E3A" d="M394.7,81.5l0.4-1.4l-2.1-0.3c-0.1,0.5-0.3,0.9-0.5,1.4
		L394.7,81.5z"/>
	<path fill-rule="evenodd" clip-rule="evenodd" fill="#C41E3A" d="M393.3,78.3l2.2-0.3l0.1-1.4l-2.2,0.3
		C393.3,77.4,393.3,77.8,393.3,78.3"/>
	<path fill-rule="evenodd" clip-rule="evenodd" fill="#C41E3A" d="M395,73.1l-2.3,0.9c0.2,0.5,0.3,1,0.4,1.5l2.3-0.9L395,73.1z"/>
	<path fill-rule="evenodd" clip-rule="evenodd" fill="#C41E3A" d="M388.1,88.5l-2-0.9c-0.4,0.3-0.7,0.5-1,0.8l1.9,0.8L388.1,88.5z"
		/>
	<path fill-rule="evenodd" clip-rule="evenodd" fill="#C41E3A" d="M380.2,95.5l-1.5-0.2c-0.2,0.3-0.3,0.7-0.4,1.1
		c0,0.1,0,0.1,0.1,0.2l1.3,0.2l0,0l-0.2,1.5l1.1,1.5c0.2,0.2,0.4,0.4,0.5,0.6c0-0.4,0-0.8,0-1.3c0-0.1,0-0.2,0.1-0.4l-1.5-2
		L380.2,95.5l1.2,2.1c0.2-0.5,0.4-0.9,0.7-1.3l-1.1-1.9L380.2,95.5z"/>
	<path fill-rule="evenodd" clip-rule="evenodd" fill="#C41E3A" d="M383.8,91.6l0.8,2.1c0.3-0.3,0.6-0.5,1-0.8l-0.8-2.1L383.8,91.6z"
		/>
	<path fill-rule="evenodd" clip-rule="evenodd" fill="#C41E3A" d="M383.8,94.3l-1-1.9l-0.9,0.9l1,1.9
		C383.2,94.9,383.5,94.6,383.8,94.3"/>
	<path fill-rule="evenodd" clip-rule="evenodd" fill="#C41E3A" d="M385.9,90l0.7,2.2c0.4-0.2,0.7-0.5,1.1-0.7l-0.7-2.2L385.9,90z"/>
	<path fill-rule="evenodd" clip-rule="evenodd" fill="#C41E3A" d="M388.2,88.5l0.7,2.1c0.4-0.2,0.7-0.5,1-0.7l-0.7-2.1L388.2,88.5z"
		/>
	<path fill-rule="evenodd" clip-rule="evenodd" fill="#C41E3A" d="M391.3,86.1l-0.9,0.8l0.9,1.9c0.4-0.3,0.7-0.5,1-0.8L391.3,86.1z"
		/>
	<path fill-rule="evenodd" clip-rule="evenodd" fill="#C41E3A" d="M392.2,85.3l0.9,2.1c0.3-0.3,0.6-0.7,0.9-1l-0.9-2.2L392.2,85.3z"
		/>
	<path fill-rule="evenodd" clip-rule="evenodd" fill="#C41E3A" d="M394,82.9l1.4,1.7c0.3-0.4,0.5-0.8,0.7-1.2l-1.4-1.8L394,82.9z"/>
	<path fill-rule="evenodd" clip-rule="evenodd" fill="#C41E3A" d="M395.2,79.9l1.6,1.9c0.2-0.5,0.4-1.1,0.5-1.6l-1.8-2.1L395.2,79.9
		z"/>
	<path fill-rule="evenodd" clip-rule="evenodd" fill="#C41E3A" d="M395.5,76.5l2,1.8c0-0.6,0-1.2,0-1.7l-2.2-2L395.5,76.5z"/>
	<path fill-rule="evenodd" clip-rule="evenodd" fill="#C41E3A" d="M394.2,71.2l-0.5-1.1c-0.1,0-0.1,0-0.2,0l-1.7,1.3
		c0.2,0.4,0.4,0.9,0.5,1.3L394.2,71.2L395,73l2.1,1.1c-0.2-0.6-0.4-1.2-0.7-1.7L394.2,71.2z"/>
	<path fill-rule="evenodd" clip-rule="evenodd" fill="#C41E3A" d="M408.4,76.5l-0.9,1.1l2.1,0.5C409.2,77.5,408.8,77,408.4,76.5
		L408.4,76.5z"/>
	<polygon fill-rule="evenodd" clip-rule="evenodd" fill="#C41E3A" points="405.5,80.6 408.1,81.6 408.8,80.2 406.2,79.3 	"/>
	<polygon fill-rule="evenodd" clip-rule="evenodd" fill="#C41E3A" points="407.8,82.2 404.6,82.7 404.2,84.3 407.3,83.7 	"/>
	<polygon fill-rule="evenodd" clip-rule="evenodd" fill="#C41E3A" points="403.8,86.3 404.1,84.3 402.5,81.7 402.1,83.9 404,87.1 
		403.5,87.8 406.2,86.2 406.4,84.7 	"/>
	<polygon fill-rule="evenodd" clip-rule="evenodd" fill="#C41E3A" points="405.3,88.1 403.3,89.9 403.4,91.2 405.4,89.4 	"/>
	<polygon fill-rule="evenodd" clip-rule="evenodd" fill="#C41E3A" points="405.6,90.5 403.4,93.1 403.6,94.4 405.8,91.7 	"/>
	<polygon fill-rule="evenodd" clip-rule="evenodd" fill="#C41E3A" points="405.5,93.6 404.1,96.2 404.4,97.3 405.8,94.7 	"/>
	<polygon fill-rule="evenodd" clip-rule="evenodd" fill="#C41E3A" points="406,95.5 404.9,98.8 405.4,99.8 406.5,96.5 	"/>
	<path fill-rule="evenodd" clip-rule="evenodd" fill="#C41E3A" d="M407.1,98.3l-0.5-0.9l-0.5,3.7l0.5,0.8c0,0,0.1-0.1,0.2-0.1
		L407.1,98.3z"/>
	<path fill-rule="evenodd" clip-rule="evenodd" fill="#C41E3A" d="M406.2,74.3l-0.6,0.9l0.6,4l1.1-1.6l-0.4-2.6
		C406.7,74.8,406.5,74.5,406.2,74.3"/>
	<polygon fill-rule="evenodd" clip-rule="evenodd" fill="#C41E3A" points="404.6,82.6 405.4,80.7 404.4,77.4 403.6,79.4 	"/>
	<polygon fill-rule="evenodd" clip-rule="evenodd" fill="#C41E3A" points="401.4,87.9 403.3,89.9 403.5,88 401.6,85.9 	"/>
	<polygon fill-rule="evenodd" clip-rule="evenodd" fill="#C41E3A" points="403.4,93 403.3,91.3 401.2,89.6 401.3,91.3 	"/>
	<polygon fill-rule="evenodd" clip-rule="evenodd" fill="#C41E3A" points="404,96 403.6,94.4 401.5,93 401.8,94.6 	"/>
	<polygon fill-rule="evenodd" clip-rule="evenodd" fill="#C41E3A" points="404.4,97.4 402.2,96.4 402.6,97.7 404.9,98.8 	"/>
	<polygon fill-rule="evenodd" clip-rule="evenodd" fill="#C41E3A" points="405.4,99.9 403.1,99.2 403.6,100.4 406,101 	"/>
</g>
</svg>
