<?xml version="1.0" standalone="no"?>
<!DOCTYPE svg PUBLIC "-//W3C//DTD SVG 20010904//EN"
 "http://www.w3.org/TR/2001/REC-SVG-20010904/DTD/svg10.dtd">
<svg version="1.0" xmlns="http://www.w3.org/2000/svg"
 width="300.000000pt" height="52.000000pt" viewBox="0 0 300.000000 52.000000"
 preserveAspectRatio="xMidYMid meet">
<metadata>
Created by potrace 1.10, written by Peter Selinger 2001-2011
</metadata>
<g transform="translate(0.000000,52.000000) scale(0.100000,-0.100000)"
fill="#db1138" stroke="none">
<path d="M245 500 c-39 -26 -25 -26 17 0 18 11 29 20 23 20 -5 0 -23 -9 -40
-20z"/>
<path d="M355 500 c17 -11 35 -20 40 -20 6 0 -3 9 -20 20 -16 11 -34 20 -40
20 -5 0 4 -9 20 -20z"/>
<path d="M140 442 l-65 -38 -3 -136 c-2 -100 1 -138 10 -145 24 -19 210 -124
214 -120 2 2 -46 32 -106 66 l-110 63 0 132 0 132 65 38 c36 21 65 40 65 42 0
6 -2 6 -70 -34z"/>
<path d="M257 457 c-82 -26 -146 -108 -147 -189 0 -35 26 -118 37 -118 3 0 17
8 31 18 43 30 56 36 48 24 -3 -6 5 -19 19 -30 14 -11 25 -26 26 -33 0 -8 5 -3
11 11 9 21 12 22 15 8 5 -22 5 -22 50 -3 43 18 63 37 85 83 14 27 14 32 2 32
-28 0 -13 18 19 23 38 6 44 2 28 -17 -7 -8 -8 -17 -3 -20 35 -22 -65 -146
-117 -146 -17 0 -33 -5 -37 -11 -4 -8 -9 -7 -15 2 -8 12 -11 11 -19 -1 -18
-28 -10 -33 42 -27 141 17 222 171 155 297 -27 52 -64 81 -72 57 -4 -8 7 -27
24 -45 34 -33 36 -39 21 -62 -9 -13 -13 -11 -31 9 -11 13 -24 31 -29 40 -7 12
-12 13 -21 4 -9 -9 -7 -18 10 -39 58 -73 -14 -177 -106 -152 -73 19 -97 106
-44 159 16 16 38 29 49 29 17 0 19 5 15 44 -3 26 -1 46 6 50 7 5 11 -8 11 -42
0 -40 4 -51 19 -55 14 -3 26 6 45 35 14 22 24 43 21 48 -5 7 -86 31 -102 29
-4 0 -25 -6 -46 -12z m113 -46 c0 -13 -12 -20 -25 -14 -8 2 -11 11 -9 18 6 14
34 10 34 -4z m-105 0 c6 -10 -21 -41 -36 -41 -20 0 -49 -66 -49 -112 0 -48
-13 -71 -24 -42 -21 55 1 127 52 171 40 35 48 38 57 24z"/>
<path d="M513 410 c27 -22 27 -22 27 -148 l0 -127 -52 -32 c-29 -17 -75 -43
-103 -58 -27 -15 -54 -32 -60 -38 -11 -11 130 63 188 100 l37 23 0 135 0 134
-32 16 -33 16 28 -21z"/>
<path d="M1730 412 c-71 -9 -108 -50 -95 -105 9 -35 24 -46 92 -66 65 -19 80
-44 40 -62 -28 -13 -67 2 -67 26 0 10 -9 12 -37 8 -21 -3 -39 -7 -40 -7 -1 -1
5 -18 15 -37 21 -41 76 -63 136 -53 115 19 115 159 0 180 -75 13 -94 35 -49
56 20 9 28 8 43 -5 10 -10 35 -17 54 -17 31 0 35 3 31 19 -10 41 -69 71 -123
63z"/>
<path d="M600 375 l0 -35 45 7 45 6 0 -117 0 -116 38 0 37 0 -3 116 -4 117 50
-7 50 -6 0 35 0 35 -129 0 -129 0 0 -35z m140 -15 c0 -5 -7 -10 -15 -10 -8 0
-15 5 -15 10 0 6 7 10 15 10 8 0 15 -4 15 -10z"/>
<path d="M941 397 c-83 -42 -95 -188 -21 -250 40 -34 90 -41 156 -22 l54 16 0
72 0 72 -60 0 -60 0 0 -34 c0 -30 2 -33 25 -27 21 5 25 3 25 -18 0 -18 -7 -25
-27 -29 -42 -8 -70 8 -83 48 -28 85 43 162 100 110 18 -16 80 -11 80 7 0 5
-13 23 -29 39 -25 25 -37 29 -83 29 -29 0 -64 -6 -77 -13z"/>
<path d="M1170 265 l0 -145 38 0 37 0 -3 145 -3 145 -35 0 -34 0 0 -145z"/>
<path d="M1285 265 l0 -145 38 0 39 0 -4 55 -3 55 63 0 62 0 0 30 0 30 -64 0
c-65 0 -65 0 -62 28 3 26 5 27 70 27 l66 0 0 33 0 32 -102 0 -103 0 0 -145z
m63 -2 c-5 -25 -28 -28 -28 -4 0 12 6 21 16 21 9 0 14 -7 12 -17z"/>
<path d="M1880 375 l0 -35 45 7 45 6 0 -117 0 -116 38 0 37 0 -3 116 -4 117
49 -7 49 -6 0 35 0 35 -128 0 -128 0 0 -35z m140 -13 c0 -13 -12 -22 -22 -16
-10 6 -1 24 13 24 5 0 9 -4 9 -8z"/>
<path d="M2164 265 l-51 -145 44 0 c36 0 43 3 43 19 0 42 11 51 60 51 49 0 60
-9 60 -51 0 -16 7 -19 44 -19 l44 0 -49 131 c-27 72 -49 138 -49 145 0 10 -14
14 -47 14 l-48 0 -51 -145z m110 48 c3 -16 8 -38 12 -50 6 -21 3 -23 -26 -23
-29 0 -32 2 -26 23 4 12 9 34 12 50 4 15 10 27 14 27 4 0 10 -12 14 -27z m53
-100 c-11 -10 -26 8 -20 23 5 15 7 14 15 -1 6 -9 7 -19 5 -22z m-112 18 c3 -6
-4 -15 -15 -21 -20 -11 -21 -10 -10 9 12 23 16 25 25 12z"/>
<path d="M2383 375 l-1 -35 50 6 50 7 -4 -117 -3 -116 38 0 37 0 0 116 0 117
45 -6 45 -7 0 35 0 35 -128 0 -128 0 -1 -35z m138 -18 c-1 -12 -15 -9 -19 4
-3 6 1 10 8 8 6 -3 11 -8 11 -12z"/>
<path d="M2696 389 c-20 -16 -26 -29 -26 -60 0 -50 23 -73 89 -89 57 -13 73
-33 48 -57 -19 -20 -63 -10 -71 15 -9 26 -76 18 -76 -10 0 -49 91 -88 160 -68
52 15 70 37 70 86 0 49 -27 78 -83 89 -59 12 -67 16 -67 35 0 32 61 37 73 6 6
-14 77 -9 77 6 0 5 -13 23 -29 39 -25 25 -37 29 -84 29 -40 0 -61 -6 -81 -21z"/>
<path d="M176 119 c20 -22 66 -49 84 -49 5 0 10 9 10 21 0 11 -4 18 -8 15 -5
-3 -25 4 -45 14 -48 26 -65 25 -41 -1z"/>
</g>
</svg>
